<svg width="328" height="240" viewBox="0 0 328 240" fill="none" xmlns="http://www.w3.org/2000/svg">
<circle cx="15" cy="15" r="15" fill="#C4C4C4"/>
<rect x="54" y="7.5" width="122" height="15" rx="7.5" fill="#A8A8A8"/>
<g clip-path="url(#clip0_43_610)">
<path d="M309 16H320.17L315.29 20.88C314.9 21.27 314.9 21.91 315.29 22.3C315.68 22.69 316.31 22.69 316.7 22.3L323.29 15.71C323.68 15.32 323.68 14.69 323.29 14.3L316.71 7.69997C316.32 7.30997 315.69 7.30997 315.3 7.69997C314.91 8.08997 314.91 8.71997 315.3 9.10997L320.17 14H309C308.45 14 308 14.45 308 15C308 15.55 308.45 16 309 16Z" fill="#161616"/>
</g>
<circle cx="15" cy="85" r="15" fill="#C4C4C4"/>
<rect x="54" y="77.5" width="122" height="15" rx="7.5" fill="#A8A8A8"/>
<g clip-path="url(#clip1_43_610)">
<path d="M309 86H320.17L315.29 90.88C314.9 91.27 314.9 91.91 315.29 92.3C315.68 92.69 316.31 92.69 316.7 92.3L323.29 85.71C323.68 85.32 323.68 84.69 323.29 84.3L316.71 77.7C316.32 77.31 315.69 77.31 315.3 77.7C314.91 78.09 314.91 78.72 315.3 79.11L320.17 84H309C308.45 84 308 84.45 308 85C308 85.55 308.45 86 309 86Z" fill="#161616"/>
</g>
<circle cx="15" cy="155" r="15" fill="#C4C4C4"/>
<rect x="54" y="147.5" width="122" height="15" rx="7.5" fill="#A8A8A8"/>
<g clip-path="url(#clip2_43_610)">
<path d="M309 156H320.17L315.29 160.88C314.9 161.27 314.9 161.91 315.29 162.3C315.68 162.69 316.31 162.69 316.7 162.3L323.29 155.71C323.68 155.32 323.68 154.69 323.29 154.3L316.71 147.7C316.32 147.31 315.69 147.31 315.3 147.7C314.91 148.09 314.91 148.72 315.3 149.11L320.17 154H309C308.45 154 308 154.45 308 155C308 155.55 308.45 156 309 156Z" fill="#161616"/>
</g>
<circle cx="15" cy="225" r="15" fill="#C4C4C4"/>
<rect x="54" y="217.5" width="122" height="15" rx="7.5" fill="#A8A8A8"/>
<g clip-path="url(#clip3_43_610)">
<path d="M309 226H320.17L315.29 230.88C314.9 231.27 314.9 231.91 315.29 232.3C315.68 232.69 316.31 232.69 316.7 232.3L323.29 225.71C323.68 225.32 323.68 224.69 323.29 224.3L316.71 217.7C316.32 217.31 315.69 217.31 315.3 217.7C314.91 218.09 314.91 218.72 315.3 219.11L320.17 224H309C308.45 224 308 224.45 308 225C308 225.55 308.45 226 309 226Z" fill="#161616"/>
</g>
<defs>
<clipPath id="clip0_43_610">
<rect width="24" height="24" fill="white" transform="translate(304 3)"/>
</clipPath>
<clipPath id="clip1_43_610">
<rect width="24" height="24" fill="white" transform="translate(304 73)"/>
</clipPath>
<clipPath id="clip2_43_610">
<rect width="24" height="24" fill="white" transform="translate(304 143)"/>
</clipPath>
<clipPath id="clip3_43_610">
<rect width="24" height="24" fill="white" transform="translate(304 213)"/>
</clipPath>
</defs>
</svg>
